<svg width="120" height="38" viewBox="0 0 120 38" fill="none" xmlns="http://www.w3.org/2000/svg">
<path fill-rule="evenodd" clip-rule="evenodd" d="M24.3755 11.101C22.8069 10.0572 20.9628 9.5 19.0764 9.5V0C22.8493 0 26.5375 1.11433 29.6746 3.20208C32.8117 5.28982 35.2567 8.25722 36.7006 11.729C38.1444 15.2008 38.5222 19.0211 37.7862 22.7067C37.0501 26.3923 35.2333 29.7779 32.5654 32.435C29.8975 35.0922 26.4984 36.9018 22.798 37.6349C19.0975 38.368 15.2619 37.9917 11.7761 36.5537C8.2904 35.1156 5.31108 32.6804 3.21495 29.5558C1.11881 26.4313 0 22.7578 0 19H9.53818C9.53818 20.8789 10.0976 22.7156 11.1457 24.2779C12.1937 25.8402 13.6834 27.0578 15.4263 27.7769C17.1691 28.4959 19.087 28.684 20.9372 28.3174C22.7874 27.9509 24.4869 27.0461 25.8209 25.7176C27.1548 24.3889 28.0632 22.6962 28.4312 20.8534C28.7993 19.0105 28.6104 17.1004 27.8885 15.3645C27.1666 13.6286 25.944 12.1449 24.3755 11.101Z" fill="#132050"/>
<path fill-rule="evenodd" clip-rule="evenodd" d="M9.53818 5.02068e-06C9.53818 1.24756 9.29147 2.48291 8.81213 3.6355C8.33279 4.78809 7.63022 5.83536 6.74451 6.71752C5.85881 7.59968 4.80733 8.29944 3.6501 8.77687C2.49287 9.25428 1.25257 9.50001 4.16923e-07 9.50001L0 19C2.50514 19 4.98575 18.5086 7.30021 17.5537C9.61467 16.5989 11.7177 15.1993 13.489 13.435C15.2604 11.6708 16.6656 9.5762 17.6243 7.27099C18.5829 4.9658 19.0764 2.49511 19.0764 0L9.53818 5.02068e-06Z" fill="#132050"/>
<path d="M119.818 13.7295H115.19V28.3712H119.818V13.7295Z" fill="#132050"/>
<path d="M115.705 10.9887C116.189 11.4707 116.793 11.7117 117.519 11.7117C118.245 11.7117 118.84 11.4707 119.304 10.9887C119.768 10.4866 120 9.884 120 9.18105C120 8.45802 119.768 7.85546 119.304 7.37345C118.84 6.8914 118.245 6.65039 117.519 6.65039C116.793 6.65039 116.189 6.8914 115.705 7.37345C115.241 7.85546 115.009 8.45802 115.009 9.18105C115.009 9.884 115.241 10.4866 115.705 10.9887Z" fill="#132050"/>
<path d="M48.7939 28.3722V7.10254H53.5429V24.2147H63.0106V28.3722H48.7939Z" fill="#132050"/>
<path fill-rule="evenodd" clip-rule="evenodd" d="M71.5625 28.7029C70.0502 28.7029 68.6789 28.3716 67.4488 27.7088C66.2389 27.0259 65.2811 26.102 64.5752 24.937C63.8695 23.7722 63.5166 22.4667 63.5166 21.0206C63.5166 19.5745 63.8695 18.2791 64.5752 17.1342C65.2811 15.9894 66.2389 15.0855 67.4488 14.4228C68.6587 13.7399 70.03 13.3984 71.5625 13.3984C73.0951 13.3984 74.4663 13.7299 75.6763 14.3926C76.8862 15.0554 77.8441 15.9693 78.5498 17.1342C79.2556 18.2791 79.6086 19.5745 79.6086 21.0206C79.6086 22.4667 79.2556 23.7722 78.5498 24.937C77.8441 26.102 76.8862 27.0259 75.6763 27.7088C74.4663 28.3716 73.0951 28.7029 71.5625 28.7029ZM71.5625 24.5153C72.228 24.5153 72.8128 24.3747 73.317 24.0935C73.8211 23.7923 74.2042 23.3806 74.4663 22.8583C74.7487 22.3161 74.8898 21.7034 74.8898 21.0206C74.8898 20.3377 74.7487 19.7452 74.4663 19.2431C74.184 18.7209 73.7908 18.3192 73.2867 18.038C72.8027 17.7367 72.228 17.5861 71.5625 17.5861C70.9173 17.5861 70.3426 17.7367 69.8384 18.038C69.3343 18.3192 68.9411 18.7209 68.6587 19.2431C68.3764 19.7653 68.2353 20.3678 68.2353 21.0507C68.2353 21.7135 68.3764 22.3161 68.6587 22.8583C68.9411 23.3806 69.3343 23.7923 69.8384 24.0935C70.3426 24.3747 70.9173 24.5153 71.5625 24.5153Z" fill="#132050"/>
<path fill-rule="evenodd" clip-rule="evenodd" d="M83.2736 34.0959C84.5037 34.6582 85.9253 34.9394 87.5386 34.9394C89.1115 34.9394 90.513 34.6281 91.7431 34.0054C92.9732 33.3828 93.941 32.5192 94.6469 31.4146C95.3526 30.3099 95.706 29.0044 95.706 27.498V13.7301H91.1683V14.7138C90.8308 14.4309 90.4476 14.1934 90.0189 14.0012C89.2324 13.6196 88.3351 13.4287 87.3269 13.4287C85.9758 13.4287 84.7759 13.7501 83.7274 14.3928C82.6787 15.0154 81.852 15.879 81.247 16.9837C80.642 18.0683 80.3396 19.2934 80.3396 20.6593C80.3396 22.0049 80.642 23.2301 81.247 24.3347C81.852 25.4394 82.6787 26.3131 83.7274 26.9558C84.7759 27.5984 85.9758 27.9198 87.3269 27.9198C88.315 27.9198 89.2123 27.7291 90.0189 27.3474C90.4096 27.1626 90.7625 26.9447 91.0776 26.6938V27.6186C91.0776 28.6429 90.7449 29.4362 90.0794 29.9986C89.4342 30.561 88.5368 30.8421 87.3874 30.8421C86.4598 30.8421 85.6632 30.6815 84.9978 30.3601C84.3525 30.0388 83.7676 29.5667 83.2433 28.9441L80.4001 31.7761C81.1058 32.7803 82.0637 33.5536 83.2736 34.0959ZM89.8677 23.4008C89.4038 23.682 88.8494 23.8226 88.204 23.8226C87.5588 23.8226 86.9941 23.682 86.5101 23.4008C86.0463 23.1196 85.6834 22.738 85.4213 22.2559C85.1591 21.7538 85.028 21.2216 85.028 20.6593C85.028 20.0567 85.1591 19.5144 85.4213 19.0324C85.6834 18.5504 86.0564 18.1687 86.5404 17.8875C87.0243 17.6063 87.5789 17.4657 88.204 17.4657C88.8494 17.4657 89.4038 17.6063 89.8677 17.8875C90.3516 18.1687 90.7146 18.5504 90.9566 19.0324C91.2188 19.5144 91.3498 20.0567 91.3498 20.6593C91.3498 21.2617 91.2188 21.804 90.9566 22.286C90.7146 22.748 90.3516 23.1196 89.8677 23.4008Z" fill="#132050"/>
<path fill-rule="evenodd" clip-rule="evenodd" d="M105.446 28.7029C103.933 28.7029 102.561 28.3716 101.332 27.7088C100.122 27.0259 99.164 26.102 98.4582 24.937C97.7523 23.7722 97.3994 22.4667 97.3994 21.0206C97.3994 19.5745 97.7523 18.2791 98.4582 17.1342C99.164 15.9894 100.122 15.0855 101.332 14.4228C102.541 13.7399 103.913 13.3984 105.446 13.3984C106.978 13.3984 108.349 13.7299 109.559 14.3926C110.769 15.0554 111.727 15.9693 112.433 17.1342C113.138 18.2791 113.491 19.5745 113.491 21.0206C113.491 22.4667 113.138 23.7722 112.433 24.937C111.727 26.102 110.769 27.0259 109.559 27.7088C108.349 28.3716 106.978 28.7029 105.446 28.7029ZM105.446 24.5153C106.111 24.5153 106.695 24.3747 107.2 24.0935C107.704 23.7923 108.087 23.3806 108.349 22.8583C108.632 22.3161 108.773 21.7034 108.773 21.0206C108.773 20.3377 108.632 19.7452 108.349 19.2431C108.067 18.7209 107.674 18.3192 107.169 18.038C106.686 17.7367 106.111 17.5861 105.446 17.5861C104.8 17.5861 104.225 17.7367 103.721 18.038C103.217 18.3192 102.824 18.7209 102.541 19.2431C102.259 19.7653 102.118 20.3678 102.118 21.0507C102.118 21.7135 102.259 22.3161 102.541 22.8583C102.824 23.3806 103.217 23.7923 103.721 24.0935C104.225 24.3747 104.8 24.5153 105.446 24.5153Z" fill="#132050"/>
</svg>
